<svg xmlns="http://www.w3.org/2000/svg" viewBox="0 0 1024 1024" width="1024" height="1024"><defs>
<linearGradient id="sea" x1="0" y1="0" x2="0" y2="1"><stop offset="0" stop-color="#2BB3DB"/><stop offset="1" stop-color="#157A9E"/></linearGradient>
<linearGradient id="sun" x1="0" y1="0" x2="0" y2="1"><stop offset="0" stop-color="#FFE082"/><stop offset="1" stop-color="#FFB300"/></linearGradient>
<clipPath id="clip"><path d="M 512 0 C 160 0 0 160 0 512 C 0 864 160 1024 512 1024 C 864 1024 1024 864 1024 512 C 1024 160 864 0 512 0 Z"/></clipPath>
</defs><path d="M 512 0 C 160 0 0 160 0 512 C 0 864 160 1024 512 1024 C 864 1024 1024 864 1024 512 C 1024 160 864 0 512 0 Z" fill="url(#sea)" /><g clip-path="url(#clip)"><path d="M250 420 L250 230 L620 230 L620 420" fill="none" stroke="#fff" stroke-width="64" stroke-linecap="round" stroke-linejoin="round" opacity=".95"/><path d="M560 360 L620 440 L680 360 Z" fill="#fff" opacity=".95"/><circle cx="250" cy="420" r="52" fill="#FFD83D" stroke="#2B1B14" stroke-width="12"/><image href="../characters/red_panda.svg" x="300" y="470" width="620" height="620"/></g></svg>